<?xml version="1.0" standalone="no"?>
<!DOCTYPE svg PUBLIC "-//W3C//DTD SVG 20010904//EN"
 "http://www.w3.org/TR/2001/REC-SVG-20010904/DTD/svg10.dtd">
<svg version="1.0" xmlns="http://www.w3.org/2000/svg"
 width="512.000000pt" height="512.000000pt" viewBox="0 0 512.000000 512.000000"
 preserveAspectRatio="xMidYMid meet">
<metadata>
Created by potrace 1.11, written by Peter Selinger 2001-2013
</metadata>
<g transform="translate(0.000000,512.000000) scale(0.100000,-0.100000)"
fill="#000000" stroke="none">
<path d="M1555 5053 c-61 -6 -192 -32 -266 -54 -102 -31 -315 -139 -404 -206
-208 -156 -522 -552 -688 -870 -39 -73 -72 -181 -109 -351 -27 -127 -31 -166
-31 -292 0 -109 4 -156 16 -190 9 -25 17 -63 17 -85 0 -50 24 -163 43 -207 8
-18 19 -45 25 -60 6 -14 89 -91 189 -175 98 -81 201 -168 229 -193 28 -25 84
-73 125 -106 121 -101 129 -110 129 -145 0 -44 36 -93 86 -118 23 -12 46 -21
52 -21 7 0 14 -11 18 -25 3 -13 22 -36 42 -51 21 -15 48 -38 61 -51 16 -16 36
-23 62 -23 34 0 58 -16 226 -149 103 -82 208 -167 233 -189 25 -22 68 -60 95
-84 122 -108 265 -227 294 -244 17 -10 31 -21 31 -25 0 -6 208 -188 414 -362
45 -37 146 -123 226 -191 80 -68 215 -183 300 -256 108 -92 176 -142 225 -165
262 -124 634 -31 946 237 30 26 80 56 112 68 203 76 433 338 592 675 27 55 52
108 56 117 8 16 43 118 69 203 19 61 29 204 20 287 -6 63 -17 101 -41 151 -30
61 -34 65 -50 51 -17 -15 -15 -54 2 -54 15 0 10 -59 -7 -91 -8 -16 -12 -39 -9
-49 3 -10 -1 -33 -9 -49 -21 -39 -20 -41 9 -41 43 0 50 -35 21 -103 -31 -70
-31 -71 -5 -56 37 19 45 -2 25 -73 -10 -35 -24 -78 -32 -96 -8 -18 -14 -39
-14 -47 0 -8 -16 -46 -36 -85 -35 -66 -39 -71 -64 -65 -23 5 -32 1 -50 -24
-34 -48 -55 -55 -89 -30 -23 17 -33 19 -49 10 -30 -16 -48 -14 -121 15 -49 20
-75 25 -107 20 -30 -4 -45 -1 -54 9 -7 9 -29 15 -51 15 -33 0 -41 4 -51 28
-17 39 -48 62 -85 62 -41 0 -44 7 -27 55 20 57 19 58 -35 51 -46 -6 -50 -5
-75 25 -14 17 -26 35 -26 40 0 6 -20 19 -45 30 -24 11 -50 25 -57 32 -7 7 -27
23 -44 35 -18 12 -35 33 -38 47 -4 16 -19 30 -41 39 -20 9 -39 24 -43 34 -14
37 -108 104 -231 167 -68 34 -74 35 -91 20 -29 -26 -52 -14 -85 45 -17 31 -43
61 -58 68 -15 7 -27 19 -27 26 0 8 -19 32 -42 55 -41 39 -42 42 -32 79 6 21 8
44 6 50 -6 19 -106 62 -144 62 -44 0 -64 20 -49 49 22 40 13 65 -39 106 -27
22 -50 45 -50 52 0 6 -10 24 -23 40 -33 40 -62 93 -77 139 -16 49 -28 64 -51
64 -12 0 -16 5 -13 15 9 22 -34 19 -74 -5 -18 -11 -35 -20 -39 -20 -16 0 58
66 115 102 68 44 72 51 69 143 -2 73 25 127 113 227 32 37 62 78 65 90 4 13
15 32 25 43 10 11 25 36 33 56 11 26 28 42 69 64 77 40 99 88 95 205 -3 92 -1
88 -61 78 -25 -4 -29 12 -10 37 9 13 27 20 47 20 26 0 33 5 35 23 2 14 10 22
23 22 10 0 19 5 19 11 0 14 -34 70 -77 127 -21 28 -33 55 -33 75 0 54 -11 75
-46 96 -26 16 -34 27 -34 49 0 50 -12 90 -27 96 -8 3 -39 -1 -69 -10 -66 -19
-83 -14 -130 39 -20 23 -172 179 -338 347 -165 168 -317 326 -337 350 -27 33
-52 51 -95 68 -96 37 -319 59 -469 45z m185 -68 c0 -8 -9 -15 -20 -15 -20 0
-26 11 -13 23 12 13 33 7 33 -8z m-224 -30 c6 -16 -12 -45 -27 -45 -10 0 -12
44 -2 53 11 11 23 8 29 -8z m158 -37 c8 -13 7 -21 -2 -30 -17 -17 -46 1 -50
31 -3 18 1 22 19 19 12 -2 27 -11 33 -20z m-379 -38 c-3 -5 -13 -10 -21 -10
-8 0 -14 5 -14 10 0 6 9 10 21 10 11 0 17 -4 14 -10z m130 -59 c8 -14 -28 -31
-64 -31 -31 0 -44 23 -18 33 21 9 76 7 82 -2z m639 -42 c16 -8 31 -30 45 -66
12 -30 21 -59 21 -64 0 -14 -33 -10 -54 6 -13 10 -24 11 -37 5 -10 -6 -27 -10
-38 -10 -19 0 -21 6 -21 60 0 54 3 62 23 70 30 12 32 12 61 -1z m-874 -19 c0
-11 -7 -20 -15 -20 -8 0 -15 2 -15 4 0 2 -3 11 -6 20 -4 12 0 16 15 16 14 0
21 -6 21 -20z m-269 -111 c-10 -31 -15 -39 -22 -28 -21 34 0 104 25 79 6 -6 5
-24 -3 -51z m442 -13 c-10 -14 -22 -26 -26 -26 -5 0 1 14 13 31 12 16 24 28
27 25 3 -2 -3 -16 -14 -30z m-156 -23 c11 -35 6 -63 -12 -63 -18 0 -35 31 -35
64 0 37 35 35 47 -1z m-173 -19 c22 -8 20 -18 -10 -53 -16 -19 -35 -31 -50
-31 -34 0 -31 32 7 64 34 29 32 28 53 20z m1283 -184 c4 -98 8 -118 26 -137
11 -13 24 -23 29 -23 13 0 9 20 -7 36 -23 23 -20 74 4 74 12 0 21 9 25 25 4
14 11 25 17 25 22 0 88 -64 112 -108 40 -74 90 -110 200 -147 49 -17 63 -26
83 -60 13 -23 37 -51 53 -62 16 -12 39 -43 51 -69 21 -43 22 -55 17 -173 -8
-169 -30 -246 -112 -391 -8 -14 -22 -47 -31 -73 -19 -53 -68 -127 -84 -127 -6
0 -10 34 -10 80 0 79 -12 125 -35 133 -6 3 -28 0 -49 -6 -30 -10 -39 -19 -48
-51 -13 -44 -48 -67 -72 -47 -8 7 -21 31 -29 55 -13 37 -13 46 0 69 24 48 8
92 -46 124 -25 16 -55 34 -66 41 -11 7 -34 19 -51 27 -45 20 -52 46 -48 178 4
113 3 119 -16 124 -18 5 -20 11 -15 52 4 25 14 65 22 89 12 31 14 62 10 114
-5 53 -1 89 13 142 10 39 22 111 26 161 5 74 9 85 17 65 5 -14 12 -77 14 -140z
m-1634 -149 c16 -16 -3 -31 -37 -31 -40 0 -68 26 -45 41 15 10 68 4 82 -10z
m-185 -102 c4 -32 -20 -64 -42 -56 -21 8 -21 45 1 69 21 23 37 18 41 -13z
m177 -69 c9 -28 -13 -54 -31 -39 -15 12 -19 41 -7 52 13 13 32 7 38 -13z m624
-164 c6 -7 9 -20 6 -27 -3 -8 7 -21 25 -31 27 -16 43 -58 22 -58 -5 0 -14 -12
-21 -26 -10 -23 -15 -25 -51 -19 -56 9 -77 0 -97 -46 -19 -43 -36 -46 -41 -8
-2 13 -8 36 -13 51 -9 23 -6 38 21 97 27 57 37 71 59 74 54 8 79 7 90 -7z
m907 -64 c-12 -11 -18 7 -10 30 l8 23 4 -23 c2 -13 1 -26 -2 -30z m-1035 -385
c-6 -6 -11 -15 -11 -19 0 -12 34 -10 47 3 16 16 67 -11 71 -38 2 -15 -8 -29
-40 -50 -23 -15 -45 -39 -48 -52 -3 -13 -13 -29 -23 -35 -14 -9 -27 -1 -77 49
-33 33 -60 65 -60 71 0 15 60 61 102 79 35 14 57 10 39 -8z m-983 -25 c-2 -9
-11 -18 -21 -20 -19 -4 -32 20 -23 43 8 22 48 0 44 -23z m586 -517 c11 -8 41
-15 68 -15 38 0 50 -4 58 -21 22 -41 10 -47 -119 -61 -20 -3 -25 4 -37 42 -20
65 -9 85 30 55z m807 -1251 c8 -8 21 -14 27 -14 18 0 25 -20 12 -35 -19 -23
-45 -18 -79 17 -40 41 -41 63 -3 53 15 -3 34 -13 43 -21z m259 -206 c0 -4 27
-36 60 -71 62 -67 68 -77 48 -77 -19 0 -118 102 -118 122 0 10 -11 25 -25 34
-36 23 -31 39 5 17 17 -9 30 -21 30 -25z m675 -608 c3 -5 2 -10 -4 -10 -5 0
-13 5 -16 10 -3 6 -2 10 4 10 5 0 13 -4 16 -10z m105 -160 c0 -5 -4 -10 -10
-10 -5 0 -10 5 -10 10 0 6 5 10 10 10 6 0 10 -4 10 -10z"/>
<path d="M3670 3210 c11 -39 16 -45 111 -146 58 -62 78 -90 83 -120 5 -21 10
-42 12 -46 7 -11 44 15 44 31 0 17 -64 124 -85 141 -9 8 -13 21 -9 36 5 19 -1
32 -30 58 -19 19 -50 37 -68 41 -18 4 -41 14 -50 22 -16 14 -17 13 -8 -17z"/>
<path d="M4284 2505 c-9 -23 3 -45 26 -45 22 0 23 3 14 38 -7 25 -32 30 -40 7z"/>
<path d="M4340 2441 c0 -26 15 -41 40 -41 15 0 35 -9 45 -20 10 -11 25 -20 33
-20 8 0 37 -20 64 -45 28 -25 58 -45 68 -45 9 0 24 -8 33 -17 22 -25 56 -107
63 -154 4 -21 11 -39 16 -39 18 0 21 34 4 65 -17 32 -24 54 -25 88 -1 11 -22
40 -47 65 -25 26 -67 68 -92 95 -26 26 -58 50 -72 53 -14 3 -35 10 -48 15 -29
12 -82 12 -82 0z"/>
</g>
</svg>
